<?xml version="1.0" encoding="UTF-8"?>
<svg id="Layer_1" xmlns="http://www.w3.org/2000/svg" version="1.1" viewBox="0 0 170 170">
  <!-- Generator: Adobe Illustrator 30.0.0, SVG Export Plug-In . SVG Version: 2.1.1 Build 123)  -->
  <path d="M84.69,120.69c-.11,0-.22,0-.33,0v21.55h23.95l-7.52-23.24c-5.11,1.1-10.51,1.7-16.1,1.7Z"/>
  <path d="M108.3,142.23l15.1-32.66c-6.39,4.32-14.1,7.57-22.62,9.42l7.52,23.24Z"/>
  <path d="M142.23,68.86l-1.32-.02c.18.61.34,1.22.48,1.84l.84-1.83Z"/>
  <path d="M67.97,118.85l-7.56,23.38h23.95v-21.55c-5.7-.02-11.2-.67-16.39-1.83Z"/>
  <path d="M44.98,108.87l15.43,33.36,7.56-23.38c-8.72-1.96-16.56-5.43-22.99-9.98Z"/>
  <path d="M85.02,33.52c24.47,0,45.08,14.93,51.29,35.27l4.6.06c-5.62-23.49-28.65-41.08-56.22-41.08s-50.6,17.59-56.22,41.07l5.27-.07c6.22-20.32,26.82-35.25,51.29-35.25Z"/>
  <path d="M84.35,118.66v2.02c.11,0,.22,0,.33,0,5.59,0,10.99-.6,16.1-1.7l-.63-1.94c-4.8,1.05-9.88,1.63-15.14,1.63-.22,0-.44-.01-.67-.01Z"/>
  <path d="M138.18,77.62l3.21-6.93c-.14-.62-.3-1.24-.48-1.84l-4.6-.05c1.06,2.83,1.7,5.78,1.87,8.83Z"/>
  <path d="M100.16,117.05l.63,1.94c8.52-1.84,16.23-5.1,22.62-9.42l2.25-4.86c-6.61,5.78-15.43,10.13-25.5,12.34Z"/>
  <path d="M68.64,116.76l-.68,2.09c5.19,1.17,10.69,1.81,16.39,1.83v-2.02c-5.48-.05-10.75-.71-15.71-1.9Z"/>
  <path d="M31.8,79.3c0-3.64.68-7.17,1.94-10.52l-5.27.06c-.27.93-.51,1.87-.7,2.82l4.07,8.8c-.02-.39-.04-.78-.04-1.16Z"/>
  <path d="M68.64,116.76c-10.79-2.58-20.06-7.63-26.61-14.26l2.94,6.37c6.43,4.56,14.27,8.02,22.99,9.98l.68-2.09Z"/>
  <path d="M84.35,118.66c.22,0,.44.01.67.01,5.26,0,10.34-.58,15.14-1.63l-15.8-48.85v50.47Z"/>
  <path d="M84.35,68.19l15.8,48.85c10.07-2.21,18.89-6.56,25.5-12.34l12.53-27.09c-.17-3.05-.82-6-1.87-8.83l-51.96-.6Z"/>
  <path d="M84.35,68.19l-15.71,48.57c4.96,1.19,10.23,1.85,15.71,1.9v-50.47Z"/>
  <path d="M33.73,68.78c-1.25,3.35-1.94,6.87-1.94,10.52,0,.39.03.77.04,1.16l10.19,22.04c6.55,6.63,15.82,11.68,26.61,14.26l15.71-48.57-50.62.59Z"/>
</svg>